<svg viewBox="0 0 212 212" fill="none" xmlns="http://www.w3.org/2000/svg">
    <path d="M89.6581 185C83.4515 185 78.5655 184.279 75 182.837V182.05C76.4526 182.312 78.3674 182.443 80.7444 182.443C93.8179 182.443 100.355 173.659 100.355 156.091V50.4859C100.355 44.5861 99.2982 40.4563 97.1853 38.0964C95.2045 35.6054 91.3088 34.0321 85.4984 33.3766V32H137V33.3766C131.19 34.0321 127.228 35.6054 125.115 38.0964C123.134 40.4563 122.144 44.5861 122.144 50.4859V149.602C122.144 161.139 119.305 169.923 113.626 175.954C108.08 181.985 100.091 185 89.6581 185Z" />
    <style>
        path { fill: #322D2D; }
        @media (prefers-color-scheme: dark) {
            path { fill: #FFF; }
        }
    </style>
</svg>
